<mxfile host="65bd71144e">
    <diagram id="ASdzaO0OJrODa3CpCblJ" name="Page-1">
        <mxGraphModel dx="5080" dy="2230" grid="1" gridSize="10" guides="1" tooltips="1" connect="1" arrows="1" fold="1" page="1" pageScale="1" pageWidth="850" pageHeight="1100" math="0" shadow="0">
            <root>
                <mxCell id="0"/>
                <mxCell id="1" parent="0"/>
                <mxCell id="3" value="" style="rounded=0;whiteSpace=wrap;html=1;" vertex="1" parent="1">
                    <mxGeometry x="900" y="1470" width="660" height="820" as="geometry"/>
                </mxCell>
                <mxCell id="4" value="" style="rounded=0;whiteSpace=wrap;html=1;" vertex="1" parent="1">
                    <mxGeometry x="-250" y="540" width="570" height="560" as="geometry"/>
                </mxCell>
                <mxCell id="5" value="" style="rounded=0;whiteSpace=wrap;html=1;" vertex="1" parent="1">
                    <mxGeometry x="130" y="45" width="560" height="475" as="geometry"/>
                </mxCell>
                <mxCell id="6" value="Data Input Layer" style="text;html=1;align=center;verticalAlign=middle;whiteSpace=wrap;rounded=0;" vertex="1" parent="1">
                    <mxGeometry x="335" y="50" width="150" height="30" as="geometry"/>
                </mxCell>
                <mxCell id="7" style="edgeStyle=orthogonalEdgeStyle;rounded=0;orthogonalLoop=1;jettySize=auto;html=1;entryX=0.5;entryY=0;entryDx=0;entryDy=0;" edge="1" parent="1" source="8" target="11">
                    <mxGeometry relative="1" as="geometry"/>
                </mxCell>
                <mxCell id="8" value="Excel File Upload" style="rounded=0;whiteSpace=wrap;html=1;" vertex="1" parent="1">
                    <mxGeometry x="334.3800000000001" y="110" width="150.62" height="30" as="geometry"/>
                </mxCell>
                <mxCell id="9" style="edgeStyle=orthogonalEdgeStyle;rounded=0;orthogonalLoop=1;jettySize=auto;html=1;entryX=0.5;entryY=0;entryDx=0;entryDy=0;" edge="1" parent="1" source="11" target="13">
                    <mxGeometry relative="1" as="geometry"/>
                </mxCell>
                <mxCell id="10" style="edgeStyle=orthogonalEdgeStyle;rounded=0;orthogonalLoop=1;jettySize=auto;html=1;entryX=0.5;entryY=0;entryDx=0;entryDy=0;" edge="1" parent="1" source="11" target="17">
                    <mxGeometry relative="1" as="geometry"/>
                </mxCell>
                <mxCell id="11" value="File Type Detection" style="rhombus;whiteSpace=wrap;html=1;" vertex="1" parent="1">
                    <mxGeometry x="336.8800000000001" y="190" width="145.62" height="130" as="geometry"/>
                </mxCell>
                <mxCell id="12" style="edgeStyle=orthogonalEdgeStyle;rounded=0;orthogonalLoop=1;jettySize=auto;html=1;exitX=0.5;exitY=1;exitDx=0;exitDy=0;entryX=0;entryY=0.5;entryDx=0;entryDy=0;" edge="1" parent="1" source="13" target="15">
                    <mxGeometry relative="1" as="geometry"/>
                </mxCell>
                <mxCell id="13" value="MRFP/FS/FF/QPD" style="text;html=1;align=center;verticalAlign=middle;whiteSpace=wrap;rounded=0;" vertex="1" parent="1">
                    <mxGeometry x="160" y="330" width="110" height="30" as="geometry"/>
                </mxCell>
                <mxCell id="14" style="edgeStyle=orthogonalEdgeStyle;rounded=0;orthogonalLoop=1;jettySize=auto;html=1;entryX=0.5;entryY=0;entryDx=0;entryDy=0;" edge="1" parent="1" source="15" target="19">
                    <mxGeometry relative="1" as="geometry"/>
                </mxCell>
                <mxCell id="15" value="Document Type ID" style="rounded=0;whiteSpace=wrap;html=1;" vertex="1" parent="1">
                    <mxGeometry x="335.0000000000001" y="380" width="150.62" height="30" as="geometry"/>
                </mxCell>
                <mxCell id="16" style="edgeStyle=orthogonalEdgeStyle;rounded=0;orthogonalLoop=1;jettySize=auto;html=1;entryX=1;entryY=0.5;entryDx=0;entryDy=0;" edge="1" parent="1" source="17" target="15">
                    <mxGeometry relative="1" as="geometry">
                        <Array as="points">
                            <mxPoint x="605" y="395"/>
                        </Array>
                    </mxGeometry>
                </mxCell>
                <mxCell id="17" value="ETF/SP/SF" style="text;html=1;align=center;verticalAlign=middle;whiteSpace=wrap;rounded=0;" vertex="1" parent="1">
                    <mxGeometry x="550" y="330" width="110" height="30" as="geometry"/>
                </mxCell>
                <mxCell id="18" style="edgeStyle=orthogonalEdgeStyle;rounded=0;orthogonalLoop=1;jettySize=auto;html=1;entryX=0.5;entryY=0;entryDx=0;entryDy=0;" edge="1" parent="1" source="19" target="21">
                    <mxGeometry relative="1" as="geometry"/>
                </mxCell>
                <mxCell id="19" value="PDIFile Object" style="rounded=0;whiteSpace=wrap;html=1;" vertex="1" parent="1">
                    <mxGeometry x="334.3800000000001" y="460" width="150.62" height="30" as="geometry"/>
                </mxCell>
                <mxCell id="20" style="edgeStyle=orthogonalEdgeStyle;rounded=0;orthogonalLoop=1;jettySize=auto;html=1;entryX=0.5;entryY=0;entryDx=0;entryDy=0;" edge="1" parent="1" source="21" target="23">
                    <mxGeometry relative="1" as="geometry"/>
                </mxCell>
                <mxCell id="21" value="Create RowIdentity" style="rounded=0;whiteSpace=wrap;html=1;" vertex="1" parent="1">
                    <mxGeometry x="-5.309999999999889" y="610" width="150.62" height="30" as="geometry"/>
                </mxCell>
                <mxCell id="22" style="edgeStyle=orthogonalEdgeStyle;rounded=0;orthogonalLoop=1;jettySize=auto;html=1;entryX=0.5;entryY=0;entryDx=0;entryDy=0;" edge="1" parent="1" source="23" target="26">
                    <mxGeometry relative="1" as="geometry"/>
                </mxCell>
                <mxCell id="23" value="Track: DocType, Client, LOB, FundCode" style="rounded=0;whiteSpace=wrap;html=1;" vertex="1" parent="1">
                    <mxGeometry x="-2.6599999999999966" y="680" width="145.31" height="40" as="geometry"/>
                </mxCell>
                <mxCell id="24" style="edgeStyle=orthogonalEdgeStyle;rounded=0;orthogonalLoop=1;jettySize=auto;html=1;entryX=0.5;entryY=0;entryDx=0;entryDy=0;" edge="1" parent="1" source="26" target="29">
                    <mxGeometry relative="1" as="geometry"/>
                </mxCell>
                <mxCell id="25" style="edgeStyle=orthogonalEdgeStyle;rounded=0;orthogonalLoop=1;jettySize=auto;html=1;" edge="1" parent="1" source="26" target="31">
                    <mxGeometry relative="1" as="geometry"/>
                </mxCell>
                <mxCell id="26" value="Identity Changed?" style="rhombus;whiteSpace=wrap;html=1;" vertex="1" parent="1">
                    <mxGeometry x="4.989999999999995" y="770" width="130" height="110" as="geometry"/>
                </mxCell>
                <mxCell id="27" style="edgeStyle=orthogonalEdgeStyle;rounded=0;orthogonalLoop=1;jettySize=auto;html=1;entryX=0.5;entryY=0;entryDx=0;entryDy=0;" edge="1" parent="1" source="29" target="32">
                    <mxGeometry relative="1" as="geometry"/>
                </mxCell>
                <mxCell id="28" style="edgeStyle=orthogonalEdgeStyle;rounded=0;orthogonalLoop=1;jettySize=auto;html=1;entryX=0.5;entryY=0;entryDx=0;entryDy=0;" edge="1" parent="1" source="29" target="33">
                    <mxGeometry relative="1" as="geometry"/>
                </mxCell>
                <mxCell id="29" value="Mark Changed" style="rounded=0;whiteSpace=wrap;html=1;" vertex="1" parent="1">
                    <mxGeometry x="-141.01000000000005" y="920" width="145.31" height="40" as="geometry"/>
                </mxCell>
                <mxCell id="30" style="edgeStyle=orthogonalEdgeStyle;rounded=0;orthogonalLoop=1;jettySize=auto;html=1;entryX=0.5;entryY=0;entryDx=0;entryDy=0;" edge="1" parent="1" source="31" target="34">
                    <mxGeometry relative="1" as="geometry"/>
                </mxCell>
                <mxCell id="31" value="Continue Processing" style="rounded=0;whiteSpace=wrap;html=1;" vertex="1" parent="1">
                    <mxGeometry x="142.64999999999998" y="920" width="145.31" height="40" as="geometry"/>
                </mxCell>
                <mxCell id="32" value="Trigger Re-validation" style="rounded=0;whiteSpace=wrap;html=1;" vertex="1" parent="1">
                    <mxGeometry x="-230.00000000000006" y="1020" width="145.31" height="40" as="geometry"/>
                </mxCell>
                <mxCell id="33" value="Refresh French Translation" style="rounded=0;whiteSpace=wrap;html=1;" vertex="1" parent="1">
                    <mxGeometry x="-52.03" y="1020" width="145.31" height="40" as="geometry"/>
                </mxCell>
                <mxCell id="34" value="Maintain Current State" style="rounded=0;whiteSpace=wrap;html=1;" vertex="1" parent="1">
                    <mxGeometry x="142.64999999999998" y="1020" width="145.31" height="40" as="geometry"/>
                </mxCell>
                <mxCell id="35" value="Row Identity Tracking" style="text;html=1;align=center;verticalAlign=middle;whiteSpace=wrap;rounded=0;" vertex="1" parent="1">
                    <mxGeometry x="-250" y="540" width="140" height="30" as="geometry"/>
                </mxCell>
                <mxCell id="36" value="" style="rounded=0;whiteSpace=wrap;html=1;" vertex="1" parent="1">
                    <mxGeometry x="370" y="545" width="450" height="560" as="geometry"/>
                </mxCell>
                <mxCell id="37" value="Reject File" style="rounded=0;whiteSpace=wrap;html=1;" vertex="1" parent="1">
                    <mxGeometry x="400" y="1045" width="110" height="30" as="geometry"/>
                </mxCell>
                <mxCell id="38" style="edgeStyle=orthogonalEdgeStyle;rounded=0;orthogonalLoop=1;jettySize=auto;html=1;entryX=0.5;entryY=0;entryDx=0;entryDy=0;" edge="1" parent="1" source="39" target="45">
                    <mxGeometry relative="1" as="geometry"/>
                </mxCell>
                <mxCell id="39" value="Structure Validation" style="rounded=0;whiteSpace=wrap;html=1;" vertex="1" parent="1">
                    <mxGeometry x="540" y="575" width="130" height="30" as="geometry"/>
                </mxCell>
                <mxCell id="40" value="Validation Layer" style="text;html=1;align=center;verticalAlign=middle;whiteSpace=wrap;rounded=0;" vertex="1" parent="1">
                    <mxGeometry x="370" y="545" width="140" height="30" as="geometry"/>
                </mxCell>
                <mxCell id="41" style="edgeStyle=orthogonalEdgeStyle;rounded=0;orthogonalLoop=1;jettySize=auto;html=1;entryX=0.5;entryY=0;entryDx=0;entryDy=0;" edge="1" parent="1" source="45" target="48">
                    <mxGeometry relative="1" as="geometry">
                        <Array as="points">
                            <mxPoint x="705" y="680"/>
                        </Array>
                    </mxGeometry>
                </mxCell>
                <mxCell id="42" value="true" style="edgeLabel;html=1;align=center;verticalAlign=middle;resizable=0;points=[];" vertex="1" connectable="0" parent="41">
                    <mxGeometry x="-0.3139" relative="1" as="geometry">
                        <mxPoint as="offset"/>
                    </mxGeometry>
                </mxCell>
                <mxCell id="43" style="edgeStyle=orthogonalEdgeStyle;rounded=0;orthogonalLoop=1;jettySize=auto;html=1;" edge="1" parent="1" source="45" target="37">
                    <mxGeometry relative="1" as="geometry"/>
                </mxCell>
                <mxCell id="44" value="false" style="edgeLabel;html=1;align=center;verticalAlign=middle;resizable=0;points=[];" vertex="1" connectable="0" parent="43">
                    <mxGeometry x="-0.2339" y="1" relative="1" as="geometry">
                        <mxPoint as="offset"/>
                    </mxGeometry>
                </mxCell>
                <mxCell id="45" value="Valid Structure?" style="rhombus;whiteSpace=wrap;html=1;" vertex="1" parent="1">
                    <mxGeometry x="546.33" y="645" width="117.34" height="70" as="geometry"/>
                </mxCell>
                <mxCell id="46" style="edgeStyle=orthogonalEdgeStyle;rounded=0;orthogonalLoop=1;jettySize=auto;html=1;entryX=0.5;entryY=0;entryDx=0;entryDy=0;" edge="1" parent="1" source="19" target="39">
                    <mxGeometry relative="1" as="geometry"/>
                </mxCell>
                <mxCell id="47" style="edgeStyle=orthogonalEdgeStyle;rounded=0;orthogonalLoop=1;jettySize=auto;html=1;entryX=0.5;entryY=0;entryDx=0;entryDy=0;" edge="1" parent="1" source="48" target="49">
                    <mxGeometry relative="1" as="geometry"/>
                </mxCell>
                <mxCell id="48" value="Template Loading" style="rounded=0;whiteSpace=wrap;html=1;" vertex="1" parent="1">
                    <mxGeometry x="640" y="735" width="130" height="30" as="geometry"/>
                </mxCell>
                <mxCell id="49" value="ParameterValidator" style="rounded=0;whiteSpace=wrap;html=1;" vertex="1" parent="1">
                    <mxGeometry x="640" y="795" width="130" height="30" as="geometry"/>
                </mxCell>
                <mxCell id="50" style="edgeStyle=orthogonalEdgeStyle;rounded=0;orthogonalLoop=1;jettySize=auto;html=1;entryX=0.5;entryY=0;entryDx=0;entryDy=0;" edge="1" parent="1" source="54" target="55">
                    <mxGeometry relative="1" as="geometry"/>
                </mxCell>
                <mxCell id="51" value="true" style="edgeLabel;html=1;align=center;verticalAlign=middle;resizable=0;points=[];" vertex="1" connectable="0" parent="50">
                    <mxGeometry x="-0.4001" relative="1" as="geometry">
                        <mxPoint as="offset"/>
                    </mxGeometry>
                </mxCell>
                <mxCell id="52" style="edgeStyle=orthogonalEdgeStyle;rounded=0;orthogonalLoop=1;jettySize=auto;html=1;entryX=0.5;entryY=0;entryDx=0;entryDy=0;" edge="1" parent="1" source="54" target="37">
                    <mxGeometry relative="1" as="geometry"/>
                </mxCell>
                <mxCell id="53" value="false" style="edgeLabel;html=1;align=center;verticalAlign=middle;resizable=0;points=[];" vertex="1" connectable="0" parent="52">
                    <mxGeometry x="-0.2911" y="1" relative="1" as="geometry">
                        <mxPoint as="offset"/>
                    </mxGeometry>
                </mxCell>
                <mxCell id="54" value="Valid XML/Scenarios?" style="rhombus;whiteSpace=wrap;html=1;" vertex="1" parent="1">
                    <mxGeometry x="623.1700000000001" y="855" width="163.67" height="70" as="geometry"/>
                </mxCell>
                <mxCell id="55" value="Data Extraction" style="rounded=0;whiteSpace=wrap;html=1;" vertex="1" parent="1">
                    <mxGeometry x="640.01" y="975" width="130" height="30" as="geometry"/>
                </mxCell>
                <mxCell id="56" style="edgeStyle=orthogonalEdgeStyle;rounded=0;orthogonalLoop=1;jettySize=auto;html=1;entryX=0.5;entryY=0;entryDx=0;entryDy=0;" edge="1" parent="1" source="49" target="54">
                    <mxGeometry relative="1" as="geometry"/>
                </mxCell>
                <mxCell id="57" value="" style="rounded=0;whiteSpace=wrap;html=1;" vertex="1" parent="1">
                    <mxGeometry x="1080" y="1020" width="700" height="360" as="geometry"/>
                </mxCell>
                <mxCell id="58" style="edgeStyle=orthogonalEdgeStyle;rounded=0;orthogonalLoop=1;jettySize=auto;html=1;entryX=0.5;entryY=0;entryDx=0;entryDy=0;" edge="1" parent="1" source="59" target="69">
                    <mxGeometry relative="1" as="geometry"/>
                </mxCell>
                <mxCell id="59" value="StringExtensions Processing" style="rounded=0;whiteSpace=wrap;html=1;" vertex="1" parent="1">
                    <mxGeometry x="1380" y="1050" width="130" height="40" as="geometry"/>
                </mxCell>
                <mxCell id="60" value="Data Processing Core" style="text;html=1;align=center;verticalAlign=middle;whiteSpace=wrap;rounded=0;" vertex="1" parent="1">
                    <mxGeometry x="1610" y="1020" width="170" height="30" as="geometry"/>
                </mxCell>
                <mxCell id="61" style="edgeStyle=orthogonalEdgeStyle;rounded=0;orthogonalLoop=1;jettySize=auto;html=1;entryX=0.5;entryY=0;entryDx=0;entryDy=0;" edge="1" parent="1" source="55" target="59">
                    <mxGeometry relative="1" as="geometry"/>
                </mxCell>
                <mxCell id="62" style="edgeStyle=orthogonalEdgeStyle;rounded=0;orthogonalLoop=1;jettySize=auto;html=1;entryX=0.5;entryY=0;entryDx=0;entryDy=0;" edge="1" parent="1" source="69" target="71">
                    <mxGeometry relative="1" as="geometry"/>
                </mxCell>
                <mxCell id="63" value="Numbers" style="edgeLabel;html=1;align=center;verticalAlign=middle;resizable=0;points=[];" vertex="1" connectable="0" parent="62">
                    <mxGeometry x="0.1623" y="1" relative="1" as="geometry">
                        <mxPoint as="offset"/>
                    </mxGeometry>
                </mxCell>
                <mxCell id="64" style="edgeStyle=orthogonalEdgeStyle;rounded=0;orthogonalLoop=1;jettySize=auto;html=1;exitX=0.5;exitY=1;exitDx=0;exitDy=0;entryX=0.5;entryY=0;entryDx=0;entryDy=0;" edge="1" parent="1" source="69" target="73">
                    <mxGeometry relative="1" as="geometry">
                        <Array as="points">
                            <mxPoint x="1445" y="1230"/>
                            <mxPoint x="1345" y="1230"/>
                        </Array>
                    </mxGeometry>
                </mxCell>
                <mxCell id="65" value="Dates" style="edgeLabel;html=1;align=center;verticalAlign=middle;resizable=0;points=[];" vertex="1" connectable="0" parent="64">
                    <mxGeometry x="-0.1743" y="1" relative="1" as="geometry">
                        <mxPoint as="offset"/>
                    </mxGeometry>
                </mxCell>
                <mxCell id="66" value="Tables" style="edgeStyle=orthogonalEdgeStyle;rounded=0;orthogonalLoop=1;jettySize=auto;html=1;entryX=0.5;entryY=0;entryDx=0;entryDy=0;" edge="1" parent="1" source="69" target="75">
                    <mxGeometry relative="1" as="geometry">
                        <Array as="points">
                            <mxPoint x="1445" y="1230"/>
                            <mxPoint x="1515" y="1230"/>
                        </Array>
                    </mxGeometry>
                </mxCell>
                <mxCell id="67" style="edgeStyle=orthogonalEdgeStyle;rounded=0;orthogonalLoop=1;jettySize=auto;html=1;" edge="1" parent="1" source="69" target="81">
                    <mxGeometry relative="1" as="geometry"/>
                </mxCell>
                <mxCell id="68" value="Text" style="edgeLabel;html=1;align=center;verticalAlign=middle;resizable=0;points=[];" vertex="1" connectable="0" parent="67">
                    <mxGeometry x="-0.6436" relative="1" as="geometry">
                        <mxPoint as="offset"/>
                    </mxGeometry>
                </mxCell>
                <mxCell id="69" value="Data Type?" style="rhombus;whiteSpace=wrap;html=1;" vertex="1" parent="1">
                    <mxGeometry x="1397.5" y="1120" width="95" height="90" as="geometry"/>
                </mxCell>
                <mxCell id="70" style="edgeStyle=orthogonalEdgeStyle;rounded=0;orthogonalLoop=1;jettySize=auto;html=1;entryX=0.5;entryY=0;entryDx=0;entryDy=0;" edge="1" parent="1" source="71" target="78">
                    <mxGeometry relative="1" as="geometry"/>
                </mxCell>
                <mxCell id="71" value="Number Formatting" style="rounded=0;whiteSpace=wrap;html=1;" vertex="1" parent="1">
                    <mxGeometry x="1110" y="1250" width="130" height="30" as="geometry"/>
                </mxCell>
                <mxCell id="72" style="edgeStyle=orthogonalEdgeStyle;rounded=0;orthogonalLoop=1;jettySize=auto;html=1;entryX=0.5;entryY=0;entryDx=0;entryDy=0;" edge="1" parent="1" source="73" target="79">
                    <mxGeometry relative="1" as="geometry"/>
                </mxCell>
                <mxCell id="73" value="Date Calculation" style="rounded=0;whiteSpace=wrap;html=1;" vertex="1" parent="1">
                    <mxGeometry x="1280" y="1250" width="130" height="30" as="geometry"/>
                </mxCell>
                <mxCell id="74" style="edgeStyle=orthogonalEdgeStyle;rounded=0;orthogonalLoop=1;jettySize=auto;html=1;entryX=0.5;entryY=0;entryDx=0;entryDy=0;" edge="1" parent="1" source="75" target="77">
                    <mxGeometry relative="1" as="geometry"/>
                </mxCell>
                <mxCell id="75" value="Table Processing" style="rounded=0;whiteSpace=wrap;html=1;" vertex="1" parent="1">
                    <mxGeometry x="1450" y="1250" width="130" height="30" as="geometry"/>
                </mxCell>
                <mxCell id="76" style="edgeStyle=orthogonalEdgeStyle;rounded=0;orthogonalLoop=1;jettySize=auto;html=1;entryX=0.5;entryY=0;entryDx=0;entryDy=0;" edge="1" parent="1" source="77" target="109">
                    <mxGeometry relative="1" as="geometry">
                        <Array as="points">
                            <mxPoint x="1440" y="1335"/>
                            <mxPoint x="1440" y="1430"/>
                            <mxPoint x="1275" y="1430"/>
                        </Array>
                    </mxGeometry>
                </mxCell>
                <mxCell id="77" value="TableList Creation" style="rounded=0;whiteSpace=wrap;html=1;" vertex="1" parent="1">
                    <mxGeometry x="1450" y="1320" width="130" height="30" as="geometry"/>
                </mxCell>
                <mxCell id="78" value="Currency/Percent/Decimal" style="rounded=0;whiteSpace=wrap;html=1;" vertex="1" parent="1">
                    <mxGeometry x="1100" y="1320" width="150" height="30" as="geometry"/>
                </mxCell>
                <mxCell id="79" value="Age/Filing Year/Consecutive" style="rounded=0;whiteSpace=wrap;html=1;" vertex="1" parent="1">
                    <mxGeometry x="1280" y="1320" width="130" height="30" as="geometry"/>
                </mxCell>
                <mxCell id="80" style="edgeStyle=orthogonalEdgeStyle;rounded=0;orthogonalLoop=1;jettySize=auto;html=1;" edge="1" parent="1" source="81" target="82">
                    <mxGeometry relative="1" as="geometry"/>
                </mxCell>
                <mxCell id="81" value="XML Cleaning" style="rounded=0;whiteSpace=wrap;html=1;" vertex="1" parent="1">
                    <mxGeometry x="1620" y="1250" width="130" height="30" as="geometry"/>
                </mxCell>
                <mxCell id="82" value="CleanXML/Validation" style="rounded=0;whiteSpace=wrap;html=1;" vertex="1" parent="1">
                    <mxGeometry x="1620" y="1320" width="130" height="30" as="geometry"/>
                </mxCell>
                <mxCell id="83" value="" style="rounded=0;whiteSpace=wrap;html=1;" vertex="1" parent="1">
                    <mxGeometry x="1640" y="1440" width="540" height="440" as="geometry"/>
                </mxCell>
                <mxCell id="84" value="Bilingual Processing" style="text;html=1;align=center;verticalAlign=middle;whiteSpace=wrap;rounded=0;" vertex="1" parent="1">
                    <mxGeometry x="2040" y="1440" width="140" height="30" as="geometry"/>
                </mxCell>
                <mxCell id="85" style="edgeStyle=orthogonalEdgeStyle;rounded=0;orthogonalLoop=1;jettySize=auto;html=1;entryX=0.5;entryY=0;entryDx=0;entryDy=0;" edge="1" parent="1" source="89" target="98">
                    <mxGeometry relative="1" as="geometry"/>
                </mxCell>
                <mxCell id="86" value="Not Available" style="edgeLabel;html=1;align=center;verticalAlign=middle;resizable=0;points=[];" vertex="1" connectable="0" parent="85">
                    <mxGeometry x="0.1158" y="-2" relative="1" as="geometry">
                        <mxPoint as="offset"/>
                    </mxGeometry>
                </mxCell>
                <mxCell id="87" style="edgeStyle=orthogonalEdgeStyle;rounded=0;orthogonalLoop=1;jettySize=auto;html=1;" edge="1" parent="1" source="89" target="116">
                    <mxGeometry relative="1" as="geometry"/>
                </mxCell>
                <mxCell id="88" value="In File" style="edgeLabel;html=1;align=center;verticalAlign=middle;resizable=0;points=[];" vertex="1" connectable="0" parent="87">
                    <mxGeometry x="0.0476" y="-2" relative="1" as="geometry">
                        <mxPoint as="offset"/>
                    </mxGeometry>
                </mxCell>
                <mxCell id="89" value="French Available?" style="rhombus;whiteSpace=wrap;html=1;" vertex="1" parent="1">
                    <mxGeometry x="1770" y="1490" width="120" height="120" as="geometry"/>
                </mxCell>
                <mxCell id="90" style="edgeStyle=orthogonalEdgeStyle;rounded=0;orthogonalLoop=1;jettySize=auto;html=1;" edge="1" parent="1" source="77" target="89">
                    <mxGeometry relative="1" as="geometry">
                        <Array as="points">
                            <mxPoint x="1515" y="1410"/>
                            <mxPoint x="1830" y="1410"/>
                        </Array>
                    </mxGeometry>
                </mxCell>
                <mxCell id="91" style="edgeStyle=orthogonalEdgeStyle;rounded=0;orthogonalLoop=1;jettySize=auto;html=1;" edge="1" parent="1" source="78" target="89">
                    <mxGeometry relative="1" as="geometry">
                        <Array as="points">
                            <mxPoint x="1175" y="1410"/>
                            <mxPoint x="1830" y="1410"/>
                        </Array>
                    </mxGeometry>
                </mxCell>
                <mxCell id="92" style="edgeStyle=orthogonalEdgeStyle;rounded=0;orthogonalLoop=1;jettySize=auto;html=1;" edge="1" parent="1" source="79" target="89">
                    <mxGeometry relative="1" as="geometry">
                        <Array as="points">
                            <mxPoint x="1345" y="1410"/>
                            <mxPoint x="1830" y="1410"/>
                        </Array>
                    </mxGeometry>
                </mxCell>
                <mxCell id="93" style="edgeStyle=orthogonalEdgeStyle;rounded=0;orthogonalLoop=1;jettySize=auto;html=1;entryX=0.5;entryY=0;entryDx=0;entryDy=0;" edge="1" parent="1" source="82" target="89">
                    <mxGeometry relative="1" as="geometry"/>
                </mxCell>
                <mxCell id="94" style="edgeStyle=orthogonalEdgeStyle;rounded=0;orthogonalLoop=1;jettySize=auto;html=1;" edge="1" parent="1" source="98" target="114">
                    <mxGeometry relative="1" as="geometry"/>
                </mxCell>
                <mxCell id="95" value="Found" style="edgeLabel;html=1;align=center;verticalAlign=middle;resizable=0;points=[];" vertex="1" connectable="0" parent="94">
                    <mxGeometry x="0.1794" y="2" relative="1" as="geometry">
                        <mxPoint as="offset"/>
                    </mxGeometry>
                </mxCell>
                <mxCell id="96" style="edgeStyle=orthogonalEdgeStyle;rounded=0;orthogonalLoop=1;jettySize=auto;html=1;" edge="1" parent="1" source="98" target="112">
                    <mxGeometry relative="1" as="geometry"/>
                </mxCell>
                <mxCell id="97" value="Not Found" style="edgeLabel;html=1;align=center;verticalAlign=middle;resizable=0;points=[];" vertex="1" connectable="0" parent="96">
                    <mxGeometry x="0.1044" relative="1" as="geometry">
                        <mxPoint as="offset"/>
                    </mxGeometry>
                </mxCell>
                <mxCell id="98" value="Database Lookup" style="rounded=0;whiteSpace=wrap;html=1;" vertex="1" parent="1">
                    <mxGeometry x="1948.75" y="1610" width="130" height="30" as="geometry"/>
                </mxCell>
                <mxCell id="99" style="edgeStyle=orthogonalEdgeStyle;rounded=0;orthogonalLoop=1;jettySize=auto;html=1;entryX=0.5;entryY=0;entryDx=0;entryDy=0;" edge="1" parent="1" source="109" target="127">
                    <mxGeometry relative="1" as="geometry"/>
                </mxCell>
                <mxCell id="100" value="Multi-Column" style="edgeLabel;html=1;align=center;verticalAlign=middle;resizable=0;points=[];" vertex="1" connectable="0" parent="99">
                    <mxGeometry x="0.5558" y="-2" relative="1" as="geometry">
                        <mxPoint as="offset"/>
                    </mxGeometry>
                </mxCell>
                <mxCell id="101" style="edgeStyle=orthogonalEdgeStyle;rounded=0;orthogonalLoop=1;jettySize=auto;html=1;entryX=0.5;entryY=0;entryDx=0;entryDy=0;" edge="1" parent="1" source="109" target="125">
                    <mxGeometry relative="1" as="geometry">
                        <Array as="points">
                            <mxPoint x="1275" y="1680"/>
                            <mxPoint x="1359" y="1680"/>
                        </Array>
                    </mxGeometry>
                </mxCell>
                <mxCell id="102" value="Pivot" style="edgeLabel;html=1;align=center;verticalAlign=middle;resizable=0;points=[];" vertex="1" connectable="0" parent="101">
                    <mxGeometry x="0.6465" y="-2" relative="1" as="geometry">
                        <mxPoint as="offset"/>
                    </mxGeometry>
                </mxCell>
                <mxCell id="103" style="edgeStyle=orthogonalEdgeStyle;rounded=0;orthogonalLoop=1;jettySize=auto;html=1;entryX=0.5;entryY=0;entryDx=0;entryDy=0;" edge="1" parent="1" source="109" target="121">
                    <mxGeometry relative="1" as="geometry"/>
                </mxCell>
                <mxCell id="104" value="Currency" style="edgeLabel;html=1;align=center;verticalAlign=middle;resizable=0;points=[];" vertex="1" connectable="0" parent="103">
                    <mxGeometry x="0.4852" y="-1" relative="1" as="geometry">
                        <mxPoint as="offset"/>
                    </mxGeometry>
                </mxCell>
                <mxCell id="105" style="edgeStyle=orthogonalEdgeStyle;rounded=0;orthogonalLoop=1;jettySize=auto;html=1;entryX=0.5;entryY=0;entryDx=0;entryDy=0;" edge="1" parent="1" source="109" target="123">
                    <mxGeometry relative="1" as="geometry">
                        <Array as="points">
                            <mxPoint x="1275" y="1680"/>
                            <mxPoint x="1239" y="1680"/>
                        </Array>
                    </mxGeometry>
                </mxCell>
                <mxCell id="106" value="Number" style="edgeLabel;html=1;align=center;verticalAlign=middle;resizable=0;points=[];" vertex="1" connectable="0" parent="105">
                    <mxGeometry x="0.5425" relative="1" as="geometry">
                        <mxPoint as="offset"/>
                    </mxGeometry>
                </mxCell>
                <mxCell id="107" style="edgeStyle=orthogonalEdgeStyle;rounded=0;orthogonalLoop=1;jettySize=auto;html=1;" edge="1" parent="1" source="109" target="129">
                    <mxGeometry relative="1" as="geometry"/>
                </mxCell>
                <mxCell id="108" value="Percent" style="edgeLabel;html=1;align=center;verticalAlign=middle;resizable=0;points=[];" vertex="1" connectable="0" parent="107">
                    <mxGeometry x="0.5362" relative="1" as="geometry">
                        <mxPoint as="offset"/>
                    </mxGeometry>
                </mxCell>
                <mxCell id="109" value="Table Type?&amp;nbsp;" style="rhombus;whiteSpace=wrap;html=1;" vertex="1" parent="1">
                    <mxGeometry x="1215" y="1540" width="120" height="120" as="geometry"/>
                </mxCell>
                <mxCell id="110" value="Table Generation" style="text;html=1;align=center;verticalAlign=middle;whiteSpace=wrap;rounded=0;" vertex="1" parent="1">
                    <mxGeometry x="900" y="1470" width="120" height="30" as="geometry"/>
                </mxCell>
                <mxCell id="111" style="edgeStyle=orthogonalEdgeStyle;rounded=0;orthogonalLoop=1;jettySize=auto;html=1;entryX=0.5;entryY=0;entryDx=0;entryDy=0;" edge="1" parent="1" source="112" target="119">
                    <mxGeometry relative="1" as="geometry"/>
                </mxCell>
                <mxCell id="112" value="Flag for Translation" style="rounded=0;whiteSpace=wrap;html=1;" vertex="1" parent="1">
                    <mxGeometry x="2038.75" y="1710" width="130" height="30" as="geometry"/>
                </mxCell>
                <mxCell id="113" style="edgeStyle=orthogonalEdgeStyle;rounded=0;orthogonalLoop=1;jettySize=auto;html=1;" edge="1" parent="1" source="114" target="117">
                    <mxGeometry relative="1" as="geometry"/>
                </mxCell>
                <mxCell id="114" value="Use Existing Translation" style="rounded=0;whiteSpace=wrap;html=1;" vertex="1" parent="1">
                    <mxGeometry x="1848.75" y="1710" width="145" height="30" as="geometry"/>
                </mxCell>
                <mxCell id="115" style="edgeStyle=orthogonalEdgeStyle;rounded=0;orthogonalLoop=1;jettySize=auto;html=1;entryX=0.5;entryY=0;entryDx=0;entryDy=0;" edge="1" parent="1" source="116" target="117">
                    <mxGeometry relative="1" as="geometry"/>
                </mxCell>
                <mxCell id="116" value="Use Provided French" style="rounded=0;whiteSpace=wrap;html=1;" vertex="1" parent="1">
                    <mxGeometry x="1668.75" y="1710" width="145" height="30" as="geometry"/>
                </mxCell>
                <mxCell id="117" value="Bilingual Content Ready" style="rounded=0;whiteSpace=wrap;html=1;" vertex="1" parent="1">
                    <mxGeometry x="1753.75" y="1810" width="145" height="30" as="geometry"/>
                </mxCell>
                <mxCell id="118" style="edgeStyle=orthogonalEdgeStyle;rounded=0;orthogonalLoop=1;jettySize=auto;html=1;entryX=0.5;entryY=0;entryDx=0;entryDy=0;" edge="1" parent="1" source="119" target="265">
                    <mxGeometry relative="1" as="geometry"/>
                </mxCell>
                <mxCell id="119" value="Translation Queue" style="rounded=0;whiteSpace=wrap;html=1;" vertex="1" parent="1">
                    <mxGeometry x="2031.25" y="1810" width="145" height="30" as="geometry"/>
                </mxCell>
                <mxCell id="120" style="edgeStyle=orthogonalEdgeStyle;rounded=0;orthogonalLoop=1;jettySize=auto;html=1;entryX=0.5;entryY=0;entryDx=0;entryDy=0;" edge="1" parent="1" source="121" target="131">
                    <mxGeometry relative="1" as="geometry"/>
                </mxCell>
                <mxCell id="121" value="Distribution Tables" style="rounded=0;whiteSpace=wrap;html=1;" vertex="1" parent="1">
                    <mxGeometry x="1062.5" y="1720" width="107.5" height="30" as="geometry"/>
                </mxCell>
                <mxCell id="122" style="edgeStyle=orthogonalEdgeStyle;rounded=0;orthogonalLoop=1;jettySize=auto;html=1;" edge="1" parent="1" source="123" target="131">
                    <mxGeometry relative="1" as="geometry">
                        <Array as="points">
                            <mxPoint x="1239" y="1770"/>
                            <mxPoint x="1116" y="1770"/>
                        </Array>
                    </mxGeometry>
                </mxCell>
                <mxCell id="123" value="Holding Count" style="rounded=0;whiteSpace=wrap;html=1;" vertex="1" parent="1">
                    <mxGeometry x="1190" y="1720" width="97.5" height="30" as="geometry"/>
                </mxCell>
                <mxCell id="124" style="edgeStyle=orthogonalEdgeStyle;rounded=0;orthogonalLoop=1;jettySize=auto;html=1;" edge="1" parent="1" source="125" target="131">
                    <mxGeometry relative="1" as="geometry">
                        <Array as="points">
                            <mxPoint x="1359" y="1770"/>
                            <mxPoint x="1116" y="1770"/>
                        </Array>
                    </mxGeometry>
                </mxCell>
                <mxCell id="125" value="Multi-Year Data" style="rounded=0;whiteSpace=wrap;html=1;" vertex="1" parent="1">
                    <mxGeometry x="1307.5" y="1720" width="102.5" height="30" as="geometry"/>
                </mxCell>
                <mxCell id="126" style="edgeStyle=orthogonalEdgeStyle;rounded=0;orthogonalLoop=1;jettySize=auto;html=1;" edge="1" parent="1" source="127" target="131">
                    <mxGeometry relative="1" as="geometry">
                        <Array as="points">
                            <mxPoint x="1481" y="1770"/>
                            <mxPoint x="1116" y="1770"/>
                        </Array>
                    </mxGeometry>
                </mxCell>
                <mxCell id="127" value="Multi-Series" style="rounded=0;whiteSpace=wrap;html=1;" vertex="1" parent="1">
                    <mxGeometry x="1430" y="1720" width="102.5" height="30" as="geometry"/>
                </mxCell>
                <mxCell id="128" style="edgeStyle=orthogonalEdgeStyle;rounded=0;orthogonalLoop=1;jettySize=auto;html=1;" edge="1" parent="1" source="129" target="131">
                    <mxGeometry relative="1" as="geometry">
                        <Array as="points">
                            <mxPoint x="989" y="1770"/>
                            <mxPoint x="1116" y="1770"/>
                        </Array>
                    </mxGeometry>
                </mxCell>
                <mxCell id="129" value="Performance Tables" style="rounded=0;whiteSpace=wrap;html=1;" vertex="1" parent="1">
                    <mxGeometry x="930" y="1720" width="117.5" height="30" as="geometry"/>
                </mxCell>
                <mxCell id="130" style="edgeStyle=orthogonalEdgeStyle;rounded=0;orthogonalLoop=1;jettySize=auto;html=1;entryX=0.5;entryY=0;entryDx=0;entryDy=0;" edge="1" parent="1" source="131" target="133">
                    <mxGeometry relative="1" as="geometry"/>
                </mxCell>
                <mxCell id="131" value="Calculate Max Scale" style="rounded=0;whiteSpace=wrap;html=1;" vertex="1" parent="1">
                    <mxGeometry x="1056.25" y="1810" width="120" height="30" as="geometry"/>
                </mxCell>
                <mxCell id="132" style="edgeStyle=orthogonalEdgeStyle;rounded=0;orthogonalLoop=1;jettySize=auto;html=1;entryX=0.5;entryY=0;entryDx=0;entryDy=0;" edge="1" parent="1" source="133" target="135">
                    <mxGeometry relative="1" as="geometry"/>
                </mxCell>
                <mxCell id="133" value="Sort by Row Level" style="rounded=0;whiteSpace=wrap;html=1;" vertex="1" parent="1">
                    <mxGeometry x="1056.25" y="1870" width="120" height="30" as="geometry"/>
                </mxCell>
                <mxCell id="134" style="edgeStyle=orthogonalEdgeStyle;rounded=0;orthogonalLoop=1;jettySize=auto;html=1;entryX=0.5;entryY=0;entryDx=0;entryDy=0;" edge="1" parent="1" source="135" target="140">
                    <mxGeometry relative="1" as="geometry"/>
                </mxCell>
                <mxCell id="135" value="Format Each Value" style="rounded=0;whiteSpace=wrap;html=1;" vertex="1" parent="1">
                    <mxGeometry x="1056.25" y="1930" width="120" height="30" as="geometry"/>
                </mxCell>
                <mxCell id="136" style="edgeStyle=orthogonalEdgeStyle;rounded=0;orthogonalLoop=1;jettySize=auto;html=1;entryX=0.5;entryY=0;entryDx=0;entryDy=0;" edge="1" parent="1" source="140" target="142">
                    <mxGeometry relative="1" as="geometry">
                        <Array as="points">
                            <mxPoint x="1009" y="2030"/>
                        </Array>
                    </mxGeometry>
                </mxCell>
                <mxCell id="137" value="English" style="edgeLabel;html=1;align=center;verticalAlign=middle;resizable=0;points=[];" vertex="1" connectable="0" parent="136">
                    <mxGeometry x="0.4232" relative="1" as="geometry">
                        <mxPoint as="offset"/>
                    </mxGeometry>
                </mxCell>
                <mxCell id="138" style="edgeStyle=orthogonalEdgeStyle;rounded=0;orthogonalLoop=1;jettySize=auto;html=1;entryX=0.5;entryY=0;entryDx=0;entryDy=0;" edge="1" parent="1" source="140" target="144">
                    <mxGeometry relative="1" as="geometry"/>
                </mxCell>
                <mxCell id="139" value="French" style="edgeLabel;html=1;align=center;verticalAlign=middle;resizable=0;points=[];" vertex="1" connectable="0" parent="138">
                    <mxGeometry x="0.3987" relative="1" as="geometry">
                        <mxPoint as="offset"/>
                    </mxGeometry>
                </mxCell>
                <mxCell id="140" value="Language?" style="rhombus;whiteSpace=wrap;html=1;" vertex="1" parent="1">
                    <mxGeometry x="1069.38" y="1990" width="93.75" height="80" as="geometry"/>
                </mxCell>
                <mxCell id="141" style="edgeStyle=orthogonalEdgeStyle;rounded=0;orthogonalLoop=1;jettySize=auto;html=1;entryX=0.5;entryY=0;entryDx=0;entryDy=0;" edge="1" parent="1" source="142" target="146">
                    <mxGeometry relative="1" as="geometry"/>
                </mxCell>
                <mxCell id="142" value="EN Format Rules" style="rounded=0;whiteSpace=wrap;html=1;" vertex="1" parent="1">
                    <mxGeometry x="949.38" y="2090" width="120" height="30" as="geometry"/>
                </mxCell>
                <mxCell id="143" style="edgeStyle=orthogonalEdgeStyle;rounded=0;orthogonalLoop=1;jettySize=auto;html=1;" edge="1" parent="1" source="144" target="146">
                    <mxGeometry relative="1" as="geometry"/>
                </mxCell>
                <mxCell id="144" value="FR Format Rules" style="rounded=0;whiteSpace=wrap;html=1;" vertex="1" parent="1">
                    <mxGeometry x="1167.5" y="2090" width="120" height="30" as="geometry"/>
                </mxCell>
                <mxCell id="145" style="edgeStyle=orthogonalEdgeStyle;rounded=0;orthogonalLoop=1;jettySize=auto;html=1;entryX=0.5;entryY=0;entryDx=0;entryDy=0;" edge="1" parent="1" source="146" target="147">
                    <mxGeometry relative="1" as="geometry"/>
                </mxCell>
                <mxCell id="146" value="Generate XML Markup" style="rounded=0;whiteSpace=wrap;html=1;" vertex="1" parent="1">
                    <mxGeometry x="1049.39" y="2160" width="133.74" height="30" as="geometry"/>
                </mxCell>
                <mxCell id="147" value="Validate Table Structure" style="rounded=0;whiteSpace=wrap;html=1;" vertex="1" parent="1">
                    <mxGeometry x="1045.94" y="2220" width="140.61" height="30" as="geometry"/>
                </mxCell>
                <mxCell id="148" value="" style="rounded=0;whiteSpace=wrap;html=1;" vertex="1" parent="1">
                    <mxGeometry x="1640" y="1900" width="340" height="460" as="geometry"/>
                </mxCell>
                <mxCell id="149" value="Scenario Matching" style="text;html=1;align=center;verticalAlign=middle;whiteSpace=wrap;rounded=0;" vertex="1" parent="1">
                    <mxGeometry x="1640" y="1900" width="120" height="30" as="geometry"/>
                </mxCell>
                <mxCell id="150" style="edgeStyle=orthogonalEdgeStyle;rounded=0;orthogonalLoop=1;jettySize=auto;html=1;entryX=0.5;entryY=0;entryDx=0;entryDy=0;" edge="1" parent="1" source="151" target="154">
                    <mxGeometry relative="1" as="geometry"/>
                </mxCell>
                <mxCell id="151" value="Load Scenarios" style="rounded=0;whiteSpace=wrap;html=1;" vertex="1" parent="1">
                    <mxGeometry x="1745" y="1940" width="145" height="30" as="geometry"/>
                </mxCell>
                <mxCell id="152" style="edgeStyle=orthogonalEdgeStyle;rounded=0;orthogonalLoop=1;jettySize=auto;html=1;entryX=0.5;entryY=0;entryDx=0;entryDy=0;" edge="1" parent="1" source="117" target="151">
                    <mxGeometry relative="1" as="geometry"/>
                </mxCell>
                <mxCell id="153" style="edgeStyle=orthogonalEdgeStyle;rounded=0;orthogonalLoop=1;jettySize=auto;html=1;entryX=0.5;entryY=0;entryDx=0;entryDy=0;" edge="1" parent="1" source="154" target="158">
                    <mxGeometry relative="1" as="geometry"/>
                </mxCell>
                <mxCell id="154" value="Parse Scenario Flags" style="rounded=0;whiteSpace=wrap;html=1;" vertex="1" parent="1">
                    <mxGeometry x="1745" y="2000" width="145" height="30" as="geometry"/>
                </mxCell>
                <mxCell id="155" style="edgeStyle=orthogonalEdgeStyle;rounded=0;orthogonalLoop=1;jettySize=auto;html=1;entryX=0.5;entryY=0;entryDx=0;entryDy=0;" edge="1" parent="1" source="158" target="160">
                    <mxGeometry relative="1" as="geometry"/>
                </mxCell>
                <mxCell id="156" style="edgeStyle=orthogonalEdgeStyle;rounded=0;orthogonalLoop=1;jettySize=auto;html=1;entryX=0.5;entryY=0;entryDx=0;entryDy=0;" edge="1" parent="1" source="158" target="162">
                    <mxGeometry relative="1" as="geometry">
                        <Array as="points">
                            <mxPoint x="1723" y="2100"/>
                            <mxPoint x="1723" y="2200"/>
                            <mxPoint x="1723" y="2200"/>
                        </Array>
                    </mxGeometry>
                </mxCell>
                <mxCell id="157" style="edgeStyle=orthogonalEdgeStyle;rounded=0;orthogonalLoop=1;jettySize=auto;html=1;" edge="1" parent="1" source="158" target="164">
                    <mxGeometry relative="1" as="geometry"/>
                </mxCell>
                <mxCell id="158" value="Match Conditions?" style="rhombus;whiteSpace=wrap;html=1;" vertex="1" parent="1">
                    <mxGeometry x="1756.25" y="2060" width="122.5" height="80" as="geometry"/>
                </mxCell>
                <mxCell id="159" style="edgeStyle=orthogonalEdgeStyle;rounded=0;orthogonalLoop=1;jettySize=auto;html=1;entryX=1;entryY=0.5;entryDx=0;entryDy=0;" edge="1" parent="1" source="160" target="162">
                    <mxGeometry relative="1" as="geometry"/>
                </mxCell>
                <mxCell id="160" value="Rank by Specificity" style="rounded=0;whiteSpace=wrap;html=1;" vertex="1" parent="1">
                    <mxGeometry x="1745" y="2170" width="145" height="30" as="geometry"/>
                </mxCell>
                <mxCell id="161" style="edgeStyle=orthogonalEdgeStyle;rounded=0;orthogonalLoop=1;jettySize=auto;html=1;" edge="1" parent="1" source="162" target="165">
                    <mxGeometry relative="1" as="geometry"/>
                </mxCell>
                <mxCell id="162" value="Use Matched Content" style="rounded=0;whiteSpace=wrap;html=1;" vertex="1" parent="1">
                    <mxGeometry x="1650" y="2230" width="145" height="30" as="geometry"/>
                </mxCell>
                <mxCell id="163" style="edgeStyle=orthogonalEdgeStyle;rounded=0;orthogonalLoop=1;jettySize=auto;html=1;" edge="1" parent="1" source="164" target="165">
                    <mxGeometry relative="1" as="geometry"/>
                </mxCell>
                <mxCell id="164" value="Use Default" style="rounded=0;whiteSpace=wrap;html=1;" vertex="1" parent="1">
                    <mxGeometry x="1880" y="2230" width="85" height="30" as="geometry"/>
                </mxCell>
                <mxCell id="165" value="Apply Scenario Content" style="rounded=0;whiteSpace=wrap;html=1;" vertex="1" parent="1">
                    <mxGeometry x="1745" y="2310" width="145" height="30" as="geometry"/>
                </mxCell>
                <mxCell id="166" value="" style="rounded=0;whiteSpace=wrap;html=1;" vertex="1" parent="1">
                    <mxGeometry x="470" y="1190" width="390" height="880" as="geometry"/>
                </mxCell>
                <mxCell id="167" style="edgeStyle=orthogonalEdgeStyle;rounded=0;orthogonalLoop=1;jettySize=auto;html=1;" edge="1" parent="1" source="168" target="172">
                    <mxGeometry relative="1" as="geometry"/>
                </mxCell>
                <mxCell id="168" value="Extract Allocation Data" style="rounded=0;whiteSpace=wrap;html=1;" vertex="1" parent="1">
                    <mxGeometry x="535" y="1220" width="140" height="30" as="geometry"/>
                </mxCell>
                <mxCell id="169" value="Allocation Management" style="text;html=1;align=center;verticalAlign=middle;whiteSpace=wrap;rounded=0;" vertex="1" parent="1">
                    <mxGeometry x="700.01" y="1190" width="160" height="30" as="geometry"/>
                </mxCell>
                <mxCell id="170" style="edgeStyle=orthogonalEdgeStyle;rounded=0;orthogonalLoop=1;jettySize=auto;html=1;" edge="1" parent="1" source="55" target="168">
                    <mxGeometry relative="1" as="geometry">
                        <Array as="points">
                            <mxPoint x="710" y="1140"/>
                            <mxPoint x="610" y="1140"/>
                        </Array>
                    </mxGeometry>
                </mxCell>
                <mxCell id="171" style="edgeStyle=orthogonalEdgeStyle;rounded=0;orthogonalLoop=1;jettySize=auto;html=1;entryX=0.5;entryY=0;entryDx=0;entryDy=0;" edge="1" parent="1" source="172" target="176">
                    <mxGeometry relative="1" as="geometry"/>
                </mxCell>
                <mxCell id="172" value="AllocationList" style="rounded=0;whiteSpace=wrap;html=1;" vertex="1" parent="1">
                    <mxGeometry x="535" y="1280" width="140" height="30" as="geometry"/>
                </mxCell>
                <mxCell id="173" style="edgeStyle=orthogonalEdgeStyle;rounded=0;orthogonalLoop=1;jettySize=auto;html=1;" edge="1" parent="1" source="176" target="178">
                    <mxGeometry relative="1" as="geometry"/>
                </mxCell>
                <mxCell id="174" value="&amp;lt;=9 Items" style="edgeLabel;html=1;align=center;verticalAlign=middle;resizable=0;points=[];" vertex="1" connectable="0" parent="173">
                    <mxGeometry x="-0.1765" y="2" relative="1" as="geometry">
                        <mxPoint as="offset"/>
                    </mxGeometry>
                </mxCell>
                <mxCell id="175" style="edgeStyle=orthogonalEdgeStyle;rounded=0;orthogonalLoop=1;jettySize=auto;html=1;" edge="1" parent="1" source="176" target="179">
                    <mxGeometry relative="1" as="geometry"/>
                </mxCell>
                <mxCell id="176" value="Count Valid?" style="rhombus;whiteSpace=wrap;html=1;" vertex="1" parent="1">
                    <mxGeometry x="552.5" y="1340" width="105" height="80" as="geometry"/>
                </mxCell>
                <mxCell id="177" style="edgeStyle=orthogonalEdgeStyle;rounded=0;orthogonalLoop=1;jettySize=auto;html=1;entryX=0.5;entryY=0;entryDx=0;entryDy=0;" edge="1" parent="1" source="178" target="181">
                    <mxGeometry relative="1" as="geometry"/>
                </mxCell>
                <mxCell id="178" value="AllocationTable" style="rounded=0;whiteSpace=wrap;html=1;" vertex="1" parent="1">
                    <mxGeometry x="675" y="1430" width="116.33" height="30" as="geometry"/>
                </mxCell>
                <mxCell id="179" value="Error: Too Many" style="rounded=0;whiteSpace=wrap;html=1;" vertex="1" parent="1">
                    <mxGeometry x="502.5" y="1880" width="117.5" height="30" as="geometry"/>
                </mxCell>
                <mxCell id="180" style="edgeStyle=orthogonalEdgeStyle;rounded=0;orthogonalLoop=1;jettySize=auto;html=1;entryX=0.5;entryY=0;entryDx=0;entryDy=0;" edge="1" parent="1" source="181" target="183">
                    <mxGeometry relative="1" as="geometry"/>
                </mxCell>
                <mxCell id="181" value="Sort by FundCode" style="rounded=0;whiteSpace=wrap;html=1;" vertex="1" parent="1">
                    <mxGeometry x="675" y="1490" width="116.33" height="30" as="geometry"/>
                </mxCell>
                <mxCell id="182" style="edgeStyle=orthogonalEdgeStyle;rounded=0;orthogonalLoop=1;jettySize=auto;html=1;entryX=0.5;entryY=0;entryDx=0;entryDy=0;" edge="1" parent="1" source="183" target="185">
                    <mxGeometry relative="1" as="geometry"/>
                </mxCell>
                <mxCell id="183" value="Order AllocationItems" style="rounded=0;whiteSpace=wrap;html=1;" vertex="1" parent="1">
                    <mxGeometry x="662.5" y="1550" width="141.33" height="30" as="geometry"/>
                </mxCell>
                <mxCell id="184" style="edgeStyle=orthogonalEdgeStyle;rounded=0;orthogonalLoop=1;jettySize=auto;html=1;entryX=0.5;entryY=0;entryDx=0;entryDy=0;" edge="1" parent="1" source="185" target="187">
                    <mxGeometry relative="1" as="geometry"/>
                </mxCell>
                <mxCell id="185" value="Generate Field Names" style="rounded=0;whiteSpace=wrap;html=1;" vertex="1" parent="1">
                    <mxGeometry x="662.5" y="1610" width="141.33" height="30" as="geometry"/>
                </mxCell>
                <mxCell id="186" style="edgeStyle=orthogonalEdgeStyle;rounded=0;orthogonalLoop=1;jettySize=auto;html=1;entryX=0.5;entryY=0;entryDx=0;entryDy=0;" edge="1" parent="1" source="187" target="192">
                    <mxGeometry relative="1" as="geometry"/>
                </mxCell>
                <mxCell id="187" value="BA30, BA31, BA32..." style="rounded=0;whiteSpace=wrap;html=1;" vertex="1" parent="1">
                    <mxGeometry x="662.5" y="1670" width="141.33" height="30" as="geometry"/>
                </mxCell>
                <mxCell id="188" style="edgeStyle=orthogonalEdgeStyle;rounded=0;orthogonalLoop=1;jettySize=auto;html=1;entryX=0.5;entryY=0;entryDx=0;entryDy=0;" edge="1" parent="1" source="192" target="194">
                    <mxGeometry relative="1" as="geometry"/>
                </mxCell>
                <mxCell id="189" value="Missing" style="edgeLabel;html=1;align=center;verticalAlign=middle;resizable=0;points=[];" vertex="1" connectable="0" parent="188">
                    <mxGeometry x="-0.2187" y="1" relative="1" as="geometry">
                        <mxPoint as="offset"/>
                    </mxGeometry>
                </mxCell>
                <mxCell id="190" style="edgeStyle=orthogonalEdgeStyle;rounded=0;orthogonalLoop=1;jettySize=auto;html=1;entryX=0.5;entryY=0;entryDx=0;entryDy=0;" edge="1" parent="1" source="192" target="196">
                    <mxGeometry relative="1" as="geometry">
                        <Array as="points">
                            <mxPoint x="660" y="1780"/>
                        </Array>
                    </mxGeometry>
                </mxCell>
                <mxCell id="191" value="Present" style="edgeLabel;html=1;align=center;verticalAlign=middle;resizable=0;points=[];" vertex="1" connectable="0" parent="190">
                    <mxGeometry x="-0.1517" relative="1" as="geometry">
                        <mxPoint as="offset"/>
                    </mxGeometry>
                </mxCell>
                <mxCell id="192" value="French Text?" style="rhombus;whiteSpace=wrap;html=1;" vertex="1" parent="1">
                    <mxGeometry x="680.67" y="1740" width="105" height="80" as="geometry"/>
                </mxCell>
                <mxCell id="193" style="edgeStyle=orthogonalEdgeStyle;rounded=0;orthogonalLoop=1;jettySize=auto;html=1;" edge="1" parent="1" source="194" target="196">
                    <mxGeometry relative="1" as="geometry"/>
                </mxCell>
                <mxCell id="194" value="Retrieve from DB" style="rounded=0;whiteSpace=wrap;html=1;" vertex="1" parent="1">
                    <mxGeometry x="750" y="1880" width="100.33" height="30" as="geometry"/>
                </mxCell>
                <mxCell id="195" style="edgeStyle=orthogonalEdgeStyle;rounded=0;orthogonalLoop=1;jettySize=auto;html=1;entryX=0.5;entryY=0;entryDx=0;entryDy=0;" edge="1" parent="1" source="196" target="198">
                    <mxGeometry relative="1" as="geometry"/>
                </mxCell>
                <mxCell id="196" value="Validate" style="rounded=0;whiteSpace=wrap;html=1;" vertex="1" parent="1">
                    <mxGeometry x="609.8299999999999" y="1930" width="100.33" height="30" as="geometry"/>
                </mxCell>
                <mxCell id="197" style="edgeStyle=orthogonalEdgeStyle;rounded=0;orthogonalLoop=1;jettySize=auto;html=1;entryX=0.5;entryY=0;entryDx=0;entryDy=0;" edge="1" parent="1" source="198" target="201">
                    <mxGeometry relative="1" as="geometry">
                        <Array as="points">
                            <mxPoint x="660" y="2340"/>
                            <mxPoint x="1116" y="2340"/>
                        </Array>
                    </mxGeometry>
                </mxCell>
                <mxCell id="198" value="Ready for Staging" style="rounded=0;whiteSpace=wrap;html=1;" vertex="1" parent="1">
                    <mxGeometry x="599.9200000000001" y="1990" width="120.17" height="30" as="geometry"/>
                </mxCell>
                <mxCell id="199" value="" style="rounded=0;whiteSpace=wrap;html=1;" vertex="1" parent="1">
                    <mxGeometry x="780" y="2380" width="620" height="380" as="geometry"/>
                </mxCell>
                <mxCell id="200" style="edgeStyle=orthogonalEdgeStyle;rounded=0;orthogonalLoop=1;jettySize=auto;html=1;entryX=0.5;entryY=0;entryDx=0;entryDy=0;" edge="1" parent="1" source="201" target="212">
                    <mxGeometry relative="1" as="geometry"/>
                </mxCell>
                <mxCell id="201" value="PDI_DataTable" style="rounded=0;whiteSpace=wrap;html=1;" vertex="1" parent="1">
                    <mxGeometry x="1045.94" y="2430" width="140.61" height="30" as="geometry"/>
                </mxCell>
                <mxCell id="202" value="Data Staging" style="text;html=1;align=center;verticalAlign=middle;whiteSpace=wrap;rounded=0;" vertex="1" parent="1">
                    <mxGeometry x="780" y="2380" width="110" height="30" as="geometry"/>
                </mxCell>
                <mxCell id="203" style="edgeStyle=orthogonalEdgeStyle;rounded=0;orthogonalLoop=1;jettySize=auto;html=1;entryX=0.5;entryY=0;entryDx=0;entryDy=0;" edge="1" parent="1" source="147" target="201">
                    <mxGeometry relative="1" as="geometry"/>
                </mxCell>
                <mxCell id="204" style="edgeStyle=orthogonalEdgeStyle;rounded=0;orthogonalLoop=1;jettySize=auto;html=1;" edge="1" parent="1" source="165" target="201">
                    <mxGeometry relative="1" as="geometry">
                        <Array as="points">
                            <mxPoint x="1818" y="2400"/>
                            <mxPoint x="1116" y="2400"/>
                        </Array>
                    </mxGeometry>
                </mxCell>
                <mxCell id="205" value="" style="rounded=0;whiteSpace=wrap;html=1;" vertex="1" parent="1">
                    <mxGeometry x="810.3" y="2780" width="430" height="520" as="geometry"/>
                </mxCell>
                <mxCell id="206" value="" style="rounded=0;whiteSpace=wrap;html=1;" vertex="1" parent="1">
                    <mxGeometry x="380" y="3320" width="1860" height="260" as="geometry"/>
                </mxCell>
                <mxCell id="207" value="" style="rounded=0;whiteSpace=wrap;html=1;" vertex="1" parent="1">
                    <mxGeometry x="-70" y="3300" width="410" height="390" as="geometry"/>
                </mxCell>
                <mxCell id="208" value="" style="rounded=0;whiteSpace=wrap;html=1;" vertex="1" parent="1">
                    <mxGeometry x="-543.35" y="2770" width="950" height="380" as="geometry"/>
                </mxCell>
                <mxCell id="209" style="edgeStyle=orthogonalEdgeStyle;rounded=0;orthogonalLoop=1;jettySize=auto;html=1;" edge="1" parent="1" source="212" target="218">
                    <mxGeometry relative="1" as="geometry"/>
                </mxCell>
                <mxCell id="210" style="edgeStyle=orthogonalEdgeStyle;rounded=0;orthogonalLoop=1;jettySize=auto;html=1;entryX=0.5;entryY=0;entryDx=0;entryDy=0;" edge="1" parent="1" source="212" target="220">
                    <mxGeometry relative="1" as="geometry"/>
                </mxCell>
                <mxCell id="211" style="edgeStyle=orthogonalEdgeStyle;rounded=0;orthogonalLoop=1;jettySize=auto;html=1;entryX=0.5;entryY=0;entryDx=0;entryDy=0;" edge="1" parent="1" source="212" target="214">
                    <mxGeometry relative="1" as="geometry"/>
                </mxCell>
                <mxCell id="212" value="Preserve Metadata" style="rounded=0;whiteSpace=wrap;html=1;" vertex="1" parent="1">
                    <mxGeometry x="1045.94" y="2500" width="140.61" height="30" as="geometry"/>
                </mxCell>
                <mxCell id="213" style="edgeStyle=orthogonalEdgeStyle;rounded=0;orthogonalLoop=1;jettySize=auto;html=1;entryX=0.5;entryY=0;entryDx=0;entryDy=0;" edge="1" parent="1" source="214" target="216">
                    <mxGeometry relative="1" as="geometry"/>
                </mxCell>
                <mxCell id="214" value="Row Types" style="rounded=0;whiteSpace=wrap;html=1;" vertex="1" parent="1">
                    <mxGeometry x="1065.94" y="2570" width="100.61" height="30" as="geometry"/>
                </mxCell>
                <mxCell id="215" style="edgeStyle=orthogonalEdgeStyle;rounded=0;orthogonalLoop=1;jettySize=auto;html=1;entryX=0.5;entryY=0;entryDx=0;entryDy=0;" edge="1" parent="1" source="216" target="222">
                    <mxGeometry relative="1" as="geometry"/>
                </mxCell>
                <mxCell id="216" value="Convert to XML" style="rounded=0;whiteSpace=wrap;html=1;" vertex="1" parent="1">
                    <mxGeometry x="1065.95" y="2640" width="100.61" height="30" as="geometry"/>
                </mxCell>
                <mxCell id="217" style="edgeStyle=orthogonalEdgeStyle;rounded=0;orthogonalLoop=1;jettySize=auto;html=1;entryX=1;entryY=0.5;entryDx=0;entryDy=0;" edge="1" parent="1" source="218" target="216">
                    <mxGeometry relative="1" as="geometry">
                        <Array as="points">
                            <mxPoint x="1325" y="2655"/>
                        </Array>
                    </mxGeometry>
                </mxCell>
                <mxCell id="218" value="Column Attributes" style="rounded=0;whiteSpace=wrap;html=1;" vertex="1" parent="1">
                    <mxGeometry x="1260" y="2560" width="125.61" height="30" as="geometry"/>
                </mxCell>
                <mxCell id="219" style="edgeStyle=orthogonalEdgeStyle;rounded=0;orthogonalLoop=1;jettySize=auto;html=1;entryX=0;entryY=0.5;entryDx=0;entryDy=0;" edge="1" parent="1" source="220" target="216">
                    <mxGeometry relative="1" as="geometry">
                        <Array as="points">
                            <mxPoint x="875" y="2655"/>
                        </Array>
                    </mxGeometry>
                </mxCell>
                <mxCell id="220" value="ExtendedProperties" style="rounded=0;whiteSpace=wrap;html=1;" vertex="1" parent="1">
                    <mxGeometry x="810" y="2560" width="130.61" height="30" as="geometry"/>
                </mxCell>
                <mxCell id="221" style="edgeStyle=orthogonalEdgeStyle;rounded=0;orthogonalLoop=1;jettySize=auto;html=1;entryX=0.5;entryY=0;entryDx=0;entryDy=0;" edge="1" parent="1" source="222" target="225">
                    <mxGeometry relative="1" as="geometry"/>
                </mxCell>
                <mxCell id="222" value="Stage for Import" style="rounded=0;whiteSpace=wrap;html=1;" vertex="1" parent="1">
                    <mxGeometry x="1065.94" y="2700" width="100.61" height="30" as="geometry"/>
                </mxCell>
                <mxCell id="223" value="Database Operations" style="text;html=1;align=center;verticalAlign=middle;whiteSpace=wrap;rounded=0;" vertex="1" parent="1">
                    <mxGeometry x="810.3" y="2780" width="130" height="30" as="geometry"/>
                </mxCell>
                <mxCell id="224" style="edgeStyle=orthogonalEdgeStyle;rounded=0;orthogonalLoop=1;jettySize=auto;html=1;" edge="1" parent="1" source="225" target="232">
                    <mxGeometry relative="1" as="geometry"/>
                </mxCell>
                <mxCell id="225" value="DBConnection" style="rounded=0;whiteSpace=wrap;html=1;" vertex="1" parent="1">
                    <mxGeometry x="1066.89" y="2800" width="100.61" height="30" as="geometry"/>
                </mxCell>
                <mxCell id="226" style="edgeStyle=orthogonalEdgeStyle;rounded=0;orthogonalLoop=1;jettySize=auto;html=1;entryX=0.5;entryY=0;entryDx=0;entryDy=0;" edge="1" parent="1" source="232" target="236">
                    <mxGeometry relative="1" as="geometry"/>
                </mxCell>
                <mxCell id="227" value="Bulk Insert" style="edgeLabel;html=1;align=center;verticalAlign=middle;resizable=0;points=[];" vertex="1" connectable="0" parent="226">
                    <mxGeometry x="0.3178" y="-2" relative="1" as="geometry">
                        <mxPoint as="offset"/>
                    </mxGeometry>
                </mxCell>
                <mxCell id="228" style="edgeStyle=orthogonalEdgeStyle;rounded=0;orthogonalLoop=1;jettySize=auto;html=1;entryX=0.5;entryY=0;entryDx=0;entryDy=0;" edge="1" parent="1" source="232" target="234">
                    <mxGeometry relative="1" as="geometry"/>
                </mxCell>
                <mxCell id="229" value="Update" style="edgeLabel;html=1;align=center;verticalAlign=middle;resizable=0;points=[];" vertex="1" connectable="0" parent="228">
                    <mxGeometry x="-0.3708" y="-1" relative="1" as="geometry">
                        <mxPoint as="offset"/>
                    </mxGeometry>
                </mxCell>
                <mxCell id="230" style="edgeStyle=orthogonalEdgeStyle;rounded=0;orthogonalLoop=1;jettySize=auto;html=1;" edge="1" parent="1" source="232" target="238">
                    <mxGeometry relative="1" as="geometry"/>
                </mxCell>
                <mxCell id="231" value="Query" style="edgeLabel;html=1;align=center;verticalAlign=middle;resizable=0;points=[];" vertex="1" connectable="0" parent="230">
                    <mxGeometry x="0.2327" y="-1" relative="1" as="geometry">
                        <mxPoint as="offset"/>
                    </mxGeometry>
                </mxCell>
                <mxCell id="232" value="Operation Type?" style="rhombus;whiteSpace=wrap;html=1;" vertex="1" parent="1">
                    <mxGeometry x="952.56" y="2850" width="84" height="80" as="geometry"/>
                </mxCell>
                <mxCell id="233" style="edgeStyle=orthogonalEdgeStyle;rounded=0;orthogonalLoop=1;jettySize=auto;html=1;" edge="1" parent="1" source="234" target="243">
                    <mxGeometry relative="1" as="geometry"/>
                </mxCell>
                <mxCell id="234" value="DBConnection" style="rounded=0;whiteSpace=wrap;html=1;" vertex="1" parent="1">
                    <mxGeometry x="944.2500000000001" y="2970" width="100.61" height="30" as="geometry"/>
                </mxCell>
                <mxCell id="235" style="edgeStyle=orthogonalEdgeStyle;rounded=0;orthogonalLoop=1;jettySize=auto;html=1;entryX=0;entryY=0.5;entryDx=0;entryDy=0;" edge="1" parent="1" source="236" target="243">
                    <mxGeometry relative="1" as="geometry">
                        <Array as="points">
                            <mxPoint x="880" y="3020"/>
                            <mxPoint x="880" y="3080"/>
                        </Array>
                    </mxGeometry>
                </mxCell>
                <mxCell id="236" value="DBConnection" style="rounded=0;whiteSpace=wrap;html=1;" vertex="1" parent="1">
                    <mxGeometry x="830.0000000000001" y="2970" width="100.61" height="30" as="geometry"/>
                </mxCell>
                <mxCell id="237" style="edgeStyle=orthogonalEdgeStyle;rounded=0;orthogonalLoop=1;jettySize=auto;html=1;entryX=1;entryY=0.5;entryDx=0;entryDy=0;" edge="1" parent="1" source="238" target="243">
                    <mxGeometry relative="1" as="geometry">
                        <Array as="points">
                            <mxPoint x="1104" y="3020"/>
                            <mxPoint x="1104" y="3080"/>
                        </Array>
                    </mxGeometry>
                </mxCell>
                <mxCell id="238" value="DBConnection" style="rounded=0;whiteSpace=wrap;html=1;" vertex="1" parent="1">
                    <mxGeometry x="1054.0600000000002" y="2970" width="100.61" height="30" as="geometry"/>
                </mxCell>
                <mxCell id="239" style="edgeStyle=orthogonalEdgeStyle;rounded=0;orthogonalLoop=1;jettySize=auto;html=1;entryX=0.5;entryY=0;entryDx=0;entryDy=0;" edge="1" parent="1" source="243" target="245">
                    <mxGeometry relative="1" as="geometry"/>
                </mxCell>
                <mxCell id="240" value="yes" style="edgeLabel;html=1;align=center;verticalAlign=middle;resizable=0;points=[];" vertex="1" connectable="0" parent="239">
                    <mxGeometry x="0.1709" y="1" relative="1" as="geometry">
                        <mxPoint as="offset"/>
                    </mxGeometry>
                </mxCell>
                <mxCell id="241" style="edgeStyle=orthogonalEdgeStyle;rounded=0;orthogonalLoop=1;jettySize=auto;html=1;entryX=0.5;entryY=0;entryDx=0;entryDy=0;" edge="1" parent="1" source="243" target="249">
                    <mxGeometry relative="1" as="geometry"/>
                </mxCell>
                <mxCell id="242" value="no" style="edgeLabel;html=1;align=center;verticalAlign=middle;resizable=0;points=[];" vertex="1" connectable="0" parent="241">
                    <mxGeometry x="-0.0237" y="1" relative="1" as="geometry">
                        <mxPoint as="offset"/>
                    </mxGeometry>
                </mxCell>
                <mxCell id="243" value="Success?" style="rhombus;whiteSpace=wrap;html=1;" vertex="1" parent="1">
                    <mxGeometry x="952.55" y="3030" width="84" height="80" as="geometry"/>
                </mxCell>
                <mxCell id="244" style="edgeStyle=orthogonalEdgeStyle;rounded=0;orthogonalLoop=1;jettySize=auto;html=1;" edge="1" parent="1" source="245" target="273">
                    <mxGeometry relative="1" as="geometry"/>
                </mxCell>
                <mxCell id="245" value="Commit Transaction" style="rounded=0;whiteSpace=wrap;html=1;" vertex="1" parent="1">
                    <mxGeometry x="860" y="3170" width="120" height="30" as="geometry"/>
                </mxCell>
                <mxCell id="246" style="edgeStyle=orthogonalEdgeStyle;rounded=0;orthogonalLoop=1;jettySize=auto;html=1;entryX=1;entryY=0.5;entryDx=0;entryDy=0;" edge="1" parent="1" source="249" target="225">
                    <mxGeometry relative="1" as="geometry">
                        <Array as="points">
                            <mxPoint x="1188" y="3185"/>
                            <mxPoint x="1188" y="2815"/>
                        </Array>
                    </mxGeometry>
                </mxCell>
                <mxCell id="247" value="Attempt 1-5" style="edgeLabel;html=1;align=center;verticalAlign=middle;resizable=0;points=[];" vertex="1" connectable="0" parent="246">
                    <mxGeometry x="-0.1447" y="-1" relative="1" as="geometry">
                        <mxPoint as="offset"/>
                    </mxGeometry>
                </mxCell>
                <mxCell id="248" style="edgeStyle=orthogonalEdgeStyle;rounded=0;orthogonalLoop=1;jettySize=auto;html=1;entryX=0.5;entryY=0;entryDx=0;entryDy=0;" edge="1" parent="1" source="249" target="251">
                    <mxGeometry relative="1" as="geometry"/>
                </mxCell>
                <mxCell id="249" value="Retry Logic" style="rounded=0;whiteSpace=wrap;html=1;" vertex="1" parent="1">
                    <mxGeometry x="1030" y="3170" width="96.84" height="30" as="geometry"/>
                </mxCell>
                <mxCell id="250" style="edgeStyle=orthogonalEdgeStyle;rounded=0;orthogonalLoop=1;jettySize=auto;html=1;entryX=0.5;entryY=0;entryDx=0;entryDy=0;" edge="1" parent="1" source="251" target="253">
                    <mxGeometry relative="1" as="geometry">
                        <Array as="points">
                            <mxPoint x="1078" y="3310"/>
                            <mxPoint x="537" y="3310"/>
                        </Array>
                    </mxGeometry>
                </mxCell>
                <mxCell id="251" value="Rollback &amp;amp; Error" style="rounded=0;whiteSpace=wrap;html=1;" vertex="1" parent="1">
                    <mxGeometry x="1023.42" y="3230" width="110" height="30" as="geometry"/>
                </mxCell>
                <mxCell id="252" style="edgeStyle=orthogonalEdgeStyle;rounded=0;orthogonalLoop=1;jettySize=auto;html=1;entryX=0.5;entryY=0;entryDx=0;entryDy=0;" edge="1" parent="1" source="253" target="260">
                    <mxGeometry relative="1" as="geometry"/>
                </mxCell>
                <mxCell id="253" value="Log Error" style="rounded=0;whiteSpace=wrap;html=1;" vertex="1" parent="1">
                    <mxGeometry x="482.5000000000001" y="3350" width="110" height="30" as="geometry"/>
                </mxCell>
                <mxCell id="254" style="edgeStyle=orthogonalEdgeStyle;rounded=0;orthogonalLoop=1;jettySize=auto;html=1;entryX=0.5;entryY=0;entryDx=0;entryDy=0;" edge="1" parent="1" source="179" target="253">
                    <mxGeometry relative="1" as="geometry"/>
                </mxCell>
                <mxCell id="255" style="edgeStyle=orthogonalEdgeStyle;rounded=0;orthogonalLoop=1;jettySize=auto;html=1;" edge="1" parent="1" source="37" target="253">
                    <mxGeometry relative="1" as="geometry">
                        <Array as="points">
                            <mxPoint x="455" y="3365"/>
                        </Array>
                    </mxGeometry>
                </mxCell>
                <mxCell id="256" value="Error Handling" style="text;html=1;align=center;verticalAlign=middle;whiteSpace=wrap;rounded=0;" vertex="1" parent="1">
                    <mxGeometry x="1100" y="3320" width="130" height="30" as="geometry"/>
                </mxCell>
                <mxCell id="257" style="edgeStyle=orthogonalEdgeStyle;rounded=0;orthogonalLoop=1;jettySize=auto;html=1;" edge="1" parent="1" source="260" target="262">
                    <mxGeometry relative="1" as="geometry"/>
                </mxCell>
                <mxCell id="258" style="edgeStyle=orthogonalEdgeStyle;rounded=0;orthogonalLoop=1;jettySize=auto;html=1;" edge="1" parent="1" source="260" target="263">
                    <mxGeometry relative="1" as="geometry"/>
                </mxCell>
                <mxCell id="259" style="edgeStyle=orthogonalEdgeStyle;rounded=0;orthogonalLoop=1;jettySize=auto;html=1;entryX=0.5;entryY=0;entryDx=0;entryDy=0;" edge="1" parent="1" source="260" target="261">
                    <mxGeometry relative="1" as="geometry"/>
                </mxCell>
                <mxCell id="260" value="Error Details" style="rounded=0;whiteSpace=wrap;html=1;" vertex="1" parent="1">
                    <mxGeometry x="620.0000000000001" y="3440" width="110" height="30" as="geometry"/>
                </mxCell>
                <mxCell id="261" value="Exact Location" style="rounded=0;whiteSpace=wrap;html=1;" vertex="1" parent="1">
                    <mxGeometry x="400.0000000000001" y="3520" width="110" height="30" as="geometry"/>
                </mxCell>
                <mxCell id="262" value="Expected vs Actual" style="rounded=0;whiteSpace=wrap;html=1;" vertex="1" parent="1">
                    <mxGeometry x="730.63" y="3530" width="129.38" height="30" as="geometry"/>
                </mxCell>
                <mxCell id="263" value="Resolution Steps" style="rounded=0;whiteSpace=wrap;html=1;" vertex="1" parent="1">
                    <mxGeometry x="913.42" y="3530" width="110" height="30" as="geometry"/>
                </mxCell>
                <mxCell id="264" style="edgeStyle=orthogonalEdgeStyle;rounded=0;orthogonalLoop=1;jettySize=auto;html=1;entryX=0.5;entryY=0;entryDx=0;entryDy=0;" edge="1" parent="1" source="265" target="268">
                    <mxGeometry relative="1" as="geometry"/>
                </mxCell>
                <mxCell id="265" value="Warning Logs" style="rounded=0;whiteSpace=wrap;html=1;" vertex="1" parent="1">
                    <mxGeometry x="1993.75" y="3350" width="110" height="30" as="geometry"/>
                </mxCell>
                <mxCell id="266" style="edgeStyle=orthogonalEdgeStyle;rounded=0;orthogonalLoop=1;jettySize=auto;html=1;" edge="1" parent="1" source="268" target="269">
                    <mxGeometry relative="1" as="geometry"/>
                </mxCell>
                <mxCell id="267" style="edgeStyle=orthogonalEdgeStyle;rounded=0;orthogonalLoop=1;jettySize=auto;html=1;" edge="1" parent="1" source="268" target="270">
                    <mxGeometry relative="1" as="geometry"/>
                </mxCell>
                <mxCell id="268" value="Warning Details" style="rounded=0;whiteSpace=wrap;html=1;" vertex="1" parent="1">
                    <mxGeometry x="1993.75" y="3440" width="110" height="30" as="geometry"/>
                </mxCell>
                <mxCell id="269" value="Missing Transaction Info" style="rounded=0;whiteSpace=wrap;html=1;" vertex="1" parent="1">
                    <mxGeometry x="1860" y="3520" width="150" height="30" as="geometry"/>
                </mxCell>
                <mxCell id="270" value="Optional Field Info" style="rounded=0;whiteSpace=wrap;html=1;" vertex="1" parent="1">
                    <mxGeometry x="2080" y="3520" width="150" height="30" as="geometry"/>
                </mxCell>
                <mxCell id="271" value="Output Generation" style="text;html=1;align=center;verticalAlign=middle;whiteSpace=wrap;rounded=0;" vertex="1" parent="1">
                    <mxGeometry x="-70" y="3300" width="125" height="30" as="geometry"/>
                </mxCell>
                <mxCell id="272" style="edgeStyle=orthogonalEdgeStyle;rounded=0;orthogonalLoop=1;jettySize=auto;html=1;entryX=0.5;entryY=0;entryDx=0;entryDy=0;" edge="1" parent="1" source="273" target="280">
                    <mxGeometry relative="1" as="geometry"/>
                </mxCell>
                <mxCell id="273" value="Data Transformation" style="rounded=0;whiteSpace=wrap;html=1;" vertex="1" parent="1">
                    <mxGeometry x="60" y="3330" width="150" height="30" as="geometry"/>
                </mxCell>
                <mxCell id="274" style="edgeStyle=orthogonalEdgeStyle;rounded=0;orthogonalLoop=1;jettySize=auto;html=1;entryX=0.5;entryY=0;entryDx=0;entryDy=0;" edge="1" parent="1" source="280" target="282">
                    <mxGeometry relative="1" as="geometry">
                        <Array as="points">
                            <mxPoint x="20" y="3440"/>
                            <mxPoint x="20" y="3540"/>
                        </Array>
                    </mxGeometry>
                </mxCell>
                <mxCell id="275" value="XML" style="edgeLabel;html=1;align=center;verticalAlign=middle;resizable=0;points=[];" vertex="1" connectable="0" parent="274">
                    <mxGeometry x="0.5943" relative="1" as="geometry">
                        <mxPoint as="offset"/>
                    </mxGeometry>
                </mxCell>
                <mxCell id="276" style="edgeStyle=orthogonalEdgeStyle;rounded=0;orthogonalLoop=1;jettySize=auto;html=1;entryX=0.5;entryY=0;entryDx=0;entryDy=0;" edge="1" parent="1" source="280" target="286">
                    <mxGeometry relative="1" as="geometry"/>
                </mxCell>
                <mxCell id="277" value="HTML" style="edgeLabel;html=1;align=center;verticalAlign=middle;resizable=0;points=[];" vertex="1" connectable="0" parent="276">
                    <mxGeometry x="0.6067" relative="1" as="geometry">
                        <mxPoint as="offset"/>
                    </mxGeometry>
                </mxCell>
                <mxCell id="278" style="edgeStyle=orthogonalEdgeStyle;rounded=0;orthogonalLoop=1;jettySize=auto;html=1;entryX=0.5;entryY=0;entryDx=0;entryDy=0;" edge="1" parent="1" source="280" target="284">
                    <mxGeometry relative="1" as="geometry"/>
                </mxCell>
                <mxCell id="279" value="CSV" style="edgeLabel;html=1;align=center;verticalAlign=middle;resizable=0;points=[];" vertex="1" connectable="0" parent="278">
                    <mxGeometry x="0.0067" relative="1" as="geometry">
                        <mxPoint as="offset"/>
                    </mxGeometry>
                </mxCell>
                <mxCell id="280" value="Output Format?" style="rhombus;whiteSpace=wrap;html=1;" vertex="1" parent="1">
                    <mxGeometry x="93" y="3400" width="84" height="80" as="geometry"/>
                </mxCell>
                <mxCell id="281" style="edgeStyle=orthogonalEdgeStyle;rounded=0;orthogonalLoop=1;jettySize=auto;html=1;entryX=0.5;entryY=0;entryDx=0;entryDy=0;" edge="1" parent="1" source="282" target="287">
                    <mxGeometry relative="1" as="geometry"/>
                </mxCell>
                <mxCell id="282" value="DataTabletoXML" style="rounded=0;whiteSpace=wrap;html=1;" vertex="1" parent="1">
                    <mxGeometry x="-34.38" y="3540" width="110" height="30" as="geometry"/>
                </mxCell>
                <mxCell id="283" style="edgeStyle=orthogonalEdgeStyle;rounded=0;orthogonalLoop=1;jettySize=auto;html=1;entryX=0.5;entryY=0;entryDx=0;entryDy=0;" edge="1" parent="1" source="284" target="288">
                    <mxGeometry relative="1" as="geometry"/>
                </mxCell>
                <mxCell id="284" value="ToCSV" style="rounded=0;whiteSpace=wrap;html=1;" vertex="1" parent="1">
                    <mxGeometry x="100" y="3540" width="70" height="30" as="geometry"/>
                </mxCell>
                <mxCell id="285" style="edgeStyle=orthogonalEdgeStyle;rounded=0;orthogonalLoop=1;jettySize=auto;html=1;entryX=0.5;entryY=0;entryDx=0;entryDy=0;" edge="1" parent="1" source="286" target="289">
                    <mxGeometry relative="1" as="geometry"/>
                </mxCell>
                <mxCell id="286" value="DataTabletoHTML" style="rounded=0;whiteSpace=wrap;html=1;" vertex="1" parent="1">
                    <mxGeometry x="200" y="3540" width="110" height="30" as="geometry"/>
                </mxCell>
                <mxCell id="287" value="Publisher Import Ready" style="rounded=0;whiteSpace=wrap;html=1;" vertex="1" parent="1">
                    <mxGeometry x="-47.19" y="3600" width="135.62" height="30" as="geometry"/>
                </mxCell>
                <mxCell id="288" value="Export/Reporting" style="rounded=0;whiteSpace=wrap;html=1;" vertex="1" parent="1">
                    <mxGeometry x="82.5" y="3640" width="105" height="30" as="geometry"/>
                </mxCell>
                <mxCell id="289" value="StatusDisplay" style="rounded=0;whiteSpace=wrap;html=1;" vertex="1" parent="1">
                    <mxGeometry x="200" y="3600" width="110" height="30" as="geometry"/>
                </mxCell>
                <mxCell id="290" style="edgeStyle=orthogonalEdgeStyle;rounded=0;orthogonalLoop=1;jettySize=auto;html=1;entryX=0.5;entryY=0;entryDx=0;entryDy=0;" edge="1" parent="1" source="294" target="310">
                    <mxGeometry relative="1" as="geometry"/>
                </mxCell>
                <mxCell id="291" value="yes" style="edgeLabel;html=1;align=center;verticalAlign=middle;resizable=0;points=[];" vertex="1" connectable="0" parent="290">
                    <mxGeometry x="-0.7132" y="1" relative="1" as="geometry">
                        <mxPoint as="offset"/>
                    </mxGeometry>
                </mxCell>
                <mxCell id="292" style="edgeStyle=orthogonalEdgeStyle;rounded=0;orthogonalLoop=1;jettySize=auto;html=1;entryX=0;entryY=0.5;entryDx=0;entryDy=0;" edge="1" parent="1" source="294" target="253">
                    <mxGeometry relative="1" as="geometry">
                        <Array as="points">
                            <mxPoint x="360" y="2975"/>
                            <mxPoint x="360" y="3365"/>
                        </Array>
                    </mxGeometry>
                </mxCell>
                <mxCell id="293" value="no" style="edgeLabel;html=1;align=center;verticalAlign=middle;resizable=0;points=[];" vertex="1" connectable="0" parent="292">
                    <mxGeometry x="-0.8546" relative="1" as="geometry">
                        <mxPoint as="offset"/>
                    </mxGeometry>
                </mxCell>
                <mxCell id="294" value="Valid?" style="rhombus;whiteSpace=wrap;html=1;" vertex="1" parent="1">
                    <mxGeometry x="-120.35" y="2935" width="84" height="80" as="geometry"/>
                </mxCell>
                <mxCell id="295" style="edgeStyle=orthogonalEdgeStyle;rounded=0;orthogonalLoop=1;jettySize=auto;html=1;entryX=0.5;entryY=0;entryDx=0;entryDy=0;" edge="1" parent="1" source="296" target="294">
                    <mxGeometry relative="1" as="geometry">
                        <Array as="points">
                            <mxPoint x="-468.35" y="2890"/>
                            <mxPoint x="-78.35" y="2890"/>
                        </Array>
                    </mxGeometry>
                </mxCell>
                <mxCell id="296" value="XML Structure" style="rounded=0;whiteSpace=wrap;html=1;" vertex="1" parent="1">
                    <mxGeometry x="-523.35" y="2820" width="110" height="30" as="geometry"/>
                </mxCell>
                <mxCell id="297" value="Validation Checks" style="text;html=1;align=center;verticalAlign=middle;whiteSpace=wrap;rounded=0;" vertex="1" parent="1">
                    <mxGeometry x="-150.85" y="2770" width="145" height="30" as="geometry"/>
                </mxCell>
                <mxCell id="298" style="edgeStyle=orthogonalEdgeStyle;rounded=0;orthogonalLoop=1;jettySize=auto;html=1;" edge="1" parent="1" source="299" target="294">
                    <mxGeometry relative="1" as="geometry">
                        <Array as="points">
                            <mxPoint x="-338.35" y="2890"/>
                            <mxPoint x="-78.35" y="2890"/>
                        </Array>
                    </mxGeometry>
                </mxCell>
                <mxCell id="299" value="Decimal Precision" style="rounded=0;whiteSpace=wrap;html=1;" vertex="1" parent="1">
                    <mxGeometry x="-393.35" y="2820" width="110" height="30" as="geometry"/>
                </mxCell>
                <mxCell id="300" style="edgeStyle=orthogonalEdgeStyle;rounded=0;orthogonalLoop=1;jettySize=auto;html=1;" edge="1" parent="1" source="301" target="294">
                    <mxGeometry relative="1" as="geometry">
                        <Array as="points">
                            <mxPoint x="-206.35" y="2890"/>
                            <mxPoint x="-78.35" y="2890"/>
                        </Array>
                    </mxGeometry>
                </mxCell>
                <mxCell id="301" value="Table Structure" style="rounded=0;whiteSpace=wrap;html=1;" vertex="1" parent="1">
                    <mxGeometry x="-260.85" y="2820" width="110" height="30" as="geometry"/>
                </mxCell>
                <mxCell id="302" style="edgeStyle=orthogonalEdgeStyle;rounded=0;orthogonalLoop=1;jettySize=auto;html=1;" edge="1" parent="1" source="303" target="294">
                    <mxGeometry relative="1" as="geometry">
                        <Array as="points">
                            <mxPoint x="-71.35" y="2890"/>
                            <mxPoint x="-78.35" y="2890"/>
                        </Array>
                    </mxGeometry>
                </mxCell>
                <mxCell id="303" value="French Completeness" style="rounded=0;whiteSpace=wrap;html=1;" vertex="1" parent="1">
                    <mxGeometry x="-135.85" y="2820" width="130" height="30" as="geometry"/>
                </mxCell>
                <mxCell id="304" style="edgeStyle=orthogonalEdgeStyle;rounded=0;orthogonalLoop=1;jettySize=auto;html=1;" edge="1" parent="1" source="305" target="294">
                    <mxGeometry relative="1" as="geometry">
                        <Array as="points">
                            <mxPoint x="71.65" y="2890"/>
                            <mxPoint x="-78.35" y="2890"/>
                        </Array>
                    </mxGeometry>
                </mxCell>
                <mxCell id="305" value="Scenario Syntax" style="rounded=0;whiteSpace=wrap;html=1;" vertex="1" parent="1">
                    <mxGeometry x="16.65" y="2820" width="110" height="30" as="geometry"/>
                </mxCell>
                <mxCell id="306" style="edgeStyle=orthogonalEdgeStyle;rounded=0;orthogonalLoop=1;jettySize=auto;html=1;entryX=0.5;entryY=0;entryDx=0;entryDy=0;" edge="1" parent="1" source="307" target="294">
                    <mxGeometry relative="1" as="geometry">
                        <Array as="points">
                            <mxPoint x="338.65" y="2890"/>
                            <mxPoint x="-78.35" y="2890"/>
                        </Array>
                    </mxGeometry>
                </mxCell>
                <mxCell id="307" value="Date Format" style="rounded=0;whiteSpace=wrap;html=1;" vertex="1" parent="1">
                    <mxGeometry x="284.15" y="2820" width="110" height="30" as="geometry"/>
                </mxCell>
                <mxCell id="308" style="edgeStyle=orthogonalEdgeStyle;rounded=0;orthogonalLoop=1;jettySize=auto;html=1;" edge="1" parent="1" source="309" target="294">
                    <mxGeometry relative="1" as="geometry">
                        <Array as="points">
                            <mxPoint x="201.65" y="2890"/>
                            <mxPoint x="-78.35" y="2890"/>
                        </Array>
                    </mxGeometry>
                </mxCell>
                <mxCell id="309" value="Number Format" style="rounded=0;whiteSpace=wrap;html=1;" vertex="1" parent="1">
                    <mxGeometry x="146.65" y="2820" width="110" height="30" as="geometry"/>
                </mxCell>
                <mxCell id="310" value="Continue Processing" style="rounded=0;whiteSpace=wrap;html=1;" vertex="1" parent="1">
                    <mxGeometry x="-523.35" y="3095" width="130" height="30" as="geometry"/>
                </mxCell>
            </root>
        </mxGraphModel>
    </diagram>
</mxfile>